# xmcd
#
# Track frame offsets: 
#        180
#        10443
#        22979
#        32875
#        43554
#        58895
#        72847
#        83304
#        93949
#        106563
#        121586
#        134185
#        151041
#        163552
#
# Disc length: 2303 seconds
#
# Revision: 0
# Processed by: cddbd v1.5.1PL0 Copyright (c) Steve Scherf et al.
# Submitted via: ExactAudioCopy v0.95a5
#
DISCID=a108fd0e
DTITLE=The Dark Hollow Bluegrass Band - Thrilling Stories
DYEAR=2001
DGENRE=Bluegrass
TTITLE0=I'm Lonesome Without You (Carter Stanley)
TTITLE1=I'm Working On A Building (A.P. Carter)
TTITLE2=Thrilling Stories (Alan Bond and John Kornhauser)
TTITLE3=Katy Lynn (Mark Kronar)
TTITLE4=I Wonder If You Ever Think Of Me (Hugh Anton)
TTITLE5=Skedaddle Mountain Lullaby (Alan Bond)
TTITLE6=Helen (Rebe Gosdin)
TTITLE7=Buck's Run (Buck White)
TTITLE8=Let Me Love You One More Time (Carter Stanley)
TTITLE9=Lucy Waltz (Alan Bond and Elaine Bond)
TTITLE10=Will You Be Loving Another Man (Lester Flatt and Bill Monroe)
TTITLE11=Good Imitation Of The Blues (Patrick Brayer)
TTITLE12=I Cried Again (Autrey Inman)
TTITLE13=Train 45 (Grayson and Whitter)
EXTD=
EXTT0=
EXTT1=
EXTT2=
EXTT3=
EXTT4=
EXTT5=
EXTT6=
EXTT7=
EXTT8=
EXTT9=
EXTT10=
EXTT11=
EXTT12=
EXTT13=
PLAYORDER=
